<mxfile host="app.diagrams.net" modified="2023-10-21T05:19:54.308Z" agent="Mozilla/5.0 (Windows NT 10.0; Win64; x64) AppleWebKit/537.36 (KHTML, like Gecko) Chrome/118.0.0.0 Safari/537.36 Edg/118.0.2088.57" etag="nN4s13MRfAjgxjLbem2L" version="22.0.6" type="google">
  <diagram name="Page-1" id="13e1069c-82ec-6db2-03f1-153e76fe0fe0">
    <mxGraphModel grid="1" page="1" gridSize="10" guides="1" tooltips="1" connect="1" arrows="1" fold="1" pageScale="1" pageWidth="1100" pageHeight="850" background="none" math="0" shadow="0">
      <root>
        <mxCell id="0" />
        <mxCell id="1" parent="0" />
        <mxCell id="7baba1c4bc27f4b0-2" value="Page balance screen" style="shape=umlLifeline;perimeter=lifelinePerimeter;whiteSpace=wrap;html=1;container=1;collapsible=0;recursiveResize=0;outlineConnect=0;rounded=1;shadow=0;comic=0;labelBackgroundColor=none;strokeWidth=1;fontFamily=Verdana;fontSize=12;align=center;fillColor=#FAE5C7;strokeColor=#0F8B8D;fontColor=#143642;" vertex="1" parent="1">
          <mxGeometry x="280" y="80" width="100" height="580" as="geometry" />
        </mxCell>
        <mxCell id="7baba1c4bc27f4b0-10" value="" style="html=1;points=[];perimeter=orthogonalPerimeter;rounded=1;shadow=0;comic=0;labelBackgroundColor=none;strokeWidth=1;fontFamily=Verdana;fontSize=12;align=center;fillColor=#FAE5C7;strokeColor=#0F8B8D;fontColor=#143642;" vertex="1" parent="7baba1c4bc27f4b0-2">
          <mxGeometry x="45" y="100" width="10" height="380" as="geometry" />
        </mxCell>
        <mxCell id="7baba1c4bc27f4b0-3" value=":Page balance controller" style="shape=umlLifeline;perimeter=lifelinePerimeter;whiteSpace=wrap;html=1;container=1;collapsible=0;recursiveResize=0;outlineConnect=0;rounded=1;shadow=0;comic=0;labelBackgroundColor=none;strokeWidth=1;fontFamily=Verdana;fontSize=12;align=center;fillColor=#FAE5C7;strokeColor=#0F8B8D;fontColor=#143642;" vertex="1" parent="1">
          <mxGeometry x="460" y="80" width="100" height="580" as="geometry" />
        </mxCell>
        <mxCell id="7baba1c4bc27f4b0-13" value="" style="html=1;points=[];perimeter=orthogonalPerimeter;rounded=1;shadow=0;comic=0;labelBackgroundColor=none;strokeWidth=1;fontFamily=Verdana;fontSize=12;align=center;fillColor=#FAE5C7;strokeColor=#0F8B8D;fontColor=#143642;" vertex="1" parent="7baba1c4bc27f4b0-3">
          <mxGeometry x="45" y="120" width="10" height="370" as="geometry" />
        </mxCell>
        <mxCell id="7baba1c4bc27f4b0-4" value=":SystemDb" style="shape=umlLifeline;perimeter=lifelinePerimeter;whiteSpace=wrap;html=1;container=1;collapsible=0;recursiveResize=0;outlineConnect=0;rounded=1;shadow=0;comic=0;labelBackgroundColor=none;strokeWidth=1;fontFamily=Verdana;fontSize=12;align=center;fillColor=#FAE5C7;strokeColor=#0F8B8D;fontColor=#143642;" vertex="1" parent="1">
          <mxGeometry x="640" y="80" width="100" height="580" as="geometry" />
        </mxCell>
        <mxCell id="7baba1c4bc27f4b0-16" value="" style="html=1;points=[];perimeter=orthogonalPerimeter;rounded=1;shadow=0;comic=0;labelBackgroundColor=none;strokeWidth=1;fontFamily=Verdana;fontSize=12;align=center;fillColor=#FAE5C7;strokeColor=#0F8B8D;fontColor=#143642;" vertex="1" parent="7baba1c4bc27f4b0-4">
          <mxGeometry x="45" y="140" width="10" height="360" as="geometry" />
        </mxCell>
        <mxCell id="7baba1c4bc27f4b0-5" value=":Online payment" style="shape=umlLifeline;perimeter=lifelinePerimeter;whiteSpace=wrap;html=1;container=1;collapsible=0;recursiveResize=0;outlineConnect=0;rounded=1;shadow=0;comic=0;labelBackgroundColor=none;strokeWidth=1;fontFamily=Verdana;fontSize=12;align=center;fillColor=#FAE5C7;strokeColor=#0F8B8D;fontColor=#143642;" vertex="1" parent="1">
          <mxGeometry x="820" y="80" width="100" height="580" as="geometry" />
        </mxCell>
        <mxCell id="7baba1c4bc27f4b0-11" value="&lt;font style=&quot;font-size: 8px;&quot;&gt;Click&quot; view page balance&quot; button&lt;/font&gt;" style="html=1;verticalAlign=bottom;endArrow=block;entryX=0;entryY=0;labelBackgroundColor=none;fontFamily=Verdana;fontSize=12;edgeStyle=elbowEdgeStyle;elbow=vertical;strokeColor=#A8201A;fontColor=default;" edge="1" parent="1" target="7baba1c4bc27f4b0-10">
          <mxGeometry x="-0.0022" relative="1" as="geometry">
            <mxPoint x="155" y="180" as="sourcePoint" />
            <mxPoint as="offset" />
          </mxGeometry>
        </mxCell>
        <mxCell id="7baba1c4bc27f4b0-14" value="&lt;font style=&quot;font-size: 8px;&quot;&gt;showPageBalanceDetail()&lt;/font&gt;" style="html=1;verticalAlign=bottom;endArrow=block;entryX=0;entryY=0;labelBackgroundColor=none;fontFamily=Verdana;fontSize=12;edgeStyle=elbowEdgeStyle;elbow=vertical;strokeColor=#A8201A;fontColor=default;" edge="1" parent="1" source="7baba1c4bc27f4b0-10" target="7baba1c4bc27f4b0-13">
          <mxGeometry relative="1" as="geometry">
            <mxPoint x="370" y="200" as="sourcePoint" />
          </mxGeometry>
        </mxCell>
        <mxCell id="fqUu2-JQJaLycMAC4psw-2" value="" style="shape=umlLifeline;perimeter=lifelinePerimeter;whiteSpace=wrap;html=1;container=1;dropTarget=0;collapsible=0;recursiveResize=0;outlineConnect=0;portConstraint=eastwest;newEdgeStyle={&quot;curved&quot;:0,&quot;rounded&quot;:0};participant=umlActor;labelBackgroundColor=none;fillColor=#FAE5C7;strokeColor=#0F8B8D;fontColor=#143642;rounded=1;" vertex="1" parent="1">
          <mxGeometry x="140" y="80" width="20" height="580" as="geometry" />
        </mxCell>
        <mxCell id="fqUu2-JQJaLycMAC4psw-3" value="" style="html=1;points=[];perimeter=orthogonalPerimeter;rounded=1;shadow=0;comic=0;labelBackgroundColor=none;strokeWidth=1;fontFamily=Verdana;fontSize=12;align=center;fillColor=#FAE5C7;strokeColor=#0F8B8D;fontColor=#143642;" vertex="1" parent="1">
          <mxGeometry x="145" y="170" width="10" height="380" as="geometry" />
        </mxCell>
        <mxCell id="fqUu2-JQJaLycMAC4psw-4" value="Student" style="text;html=1;align=center;verticalAlign=middle;resizable=0;points=[];autosize=1;strokeColor=none;fillColor=none;labelBackgroundColor=none;fontColor=#143642;rounded=1;" vertex="1" parent="1">
          <mxGeometry x="95" y="110" width="60" height="30" as="geometry" />
        </mxCell>
        <mxCell id="7baba1c4bc27f4b0-17" value="&lt;font style=&quot;font-size: 8px;&quot;&gt;showPageBalanceDetail()&lt;/font&gt;" style="html=1;verticalAlign=bottom;endArrow=block;labelBackgroundColor=none;fontFamily=Verdana;fontSize=12;edgeStyle=elbowEdgeStyle;elbow=horizontal;entryX=0.5;entryY=0.061;entryDx=0;entryDy=0;entryPerimeter=0;strokeColor=#A8201A;fontColor=default;" edge="1" parent="1">
          <mxGeometry relative="1" as="geometry">
            <mxPoint x="515" y="219.99809523809517" as="sourcePoint" />
            <Array as="points" />
            <mxPoint x="685" y="220.13" as="targetPoint" />
          </mxGeometry>
        </mxCell>
        <mxCell id="fqUu2-JQJaLycMAC4psw-5" value="Alt" style="shape=umlFrame;whiteSpace=wrap;html=1;pointerEvents=0;labelBackgroundColor=none;fillColor=#FAE5C7;strokeColor=#0F8B8D;fontColor=#143642;rounded=1;" vertex="1" parent="1">
          <mxGeometry x="10" y="280" width="1110" height="310" as="geometry" />
        </mxCell>
        <mxCell id="fqUu2-JQJaLycMAC4psw-6" value="&lt;font style=&quot;font-size: 8px;&quot;&gt;return PageBalanceDetail&lt;/font&gt;" style="html=1;verticalAlign=bottom;endArrow=open;dashed=1;endSize=8;labelBackgroundColor=none;fontFamily=Verdana;fontSize=12;exitX=-0.242;exitY=0.108;exitDx=0;exitDy=0;exitPerimeter=0;entryX=0.964;entryY=0.16;entryDx=0;entryDy=0;entryPerimeter=0;strokeColor=#A8201A;fontColor=default;" edge="1" parent="1" source="7baba1c4bc27f4b0-16" target="7baba1c4bc27f4b0-13">
          <mxGeometry relative="1" as="geometry">
            <mxPoint x="732.5" y="849" as="targetPoint" />
            <mxPoint x="1008" y="850" as="sourcePoint" />
          </mxGeometry>
        </mxCell>
        <mxCell id="fqUu2-JQJaLycMAC4psw-7" value="&lt;font style=&quot;font-size: 8px;&quot;&gt;return PageBalanceDetail&lt;/font&gt;" style="html=1;verticalAlign=bottom;endArrow=open;dashed=1;endSize=8;labelBackgroundColor=none;fontFamily=Verdana;fontSize=12;exitX=-0.242;exitY=0.108;exitDx=0;exitDy=0;exitPerimeter=0;entryX=0.964;entryY=0.16;entryDx=0;entryDy=0;entryPerimeter=0;strokeColor=#A8201A;fontColor=default;" edge="1" parent="1">
          <mxGeometry relative="1" as="geometry">
            <mxPoint x="335" y="260" as="targetPoint" />
            <mxPoint x="503" y="262" as="sourcePoint" />
          </mxGeometry>
        </mxCell>
        <mxCell id="fqUu2-JQJaLycMAC4psw-8" value="&lt;font style=&quot;font-size: 8px;&quot;&gt;display PageBalanceDetail&lt;/font&gt;" style="html=1;verticalAlign=bottom;endArrow=open;dashed=1;endSize=8;labelBackgroundColor=none;fontFamily=Verdana;fontSize=12;exitX=-0.242;exitY=0.108;exitDx=0;exitDy=0;exitPerimeter=0;entryX=0.964;entryY=0.16;entryDx=0;entryDy=0;entryPerimeter=0;strokeColor=#A8201A;fontColor=default;" edge="1" parent="1">
          <mxGeometry relative="1" as="geometry">
            <mxPoint x="155" y="270" as="targetPoint" />
            <mxPoint x="323" y="272" as="sourcePoint" />
          </mxGeometry>
        </mxCell>
        <mxCell id="fqUu2-JQJaLycMAC4psw-9" value="&lt;font style=&quot;font-size: 10px;&quot;&gt;[View payment logs option]&lt;/font&gt;" style="text;html=1;strokeColor=none;fillColor=none;align=center;verticalAlign=middle;whiteSpace=wrap;rounded=1;labelBackgroundColor=none;fontColor=#143642;" vertex="1" parent="1">
          <mxGeometry x="15" y="310" width="130" height="30" as="geometry" />
        </mxCell>
        <mxCell id="fqUu2-JQJaLycMAC4psw-10" value="" style="endArrow=none;dashed=1;html=1;dashPattern=1 3;strokeWidth=2;rounded=1;exitX=0.001;exitY=0.364;exitDx=0;exitDy=0;exitPerimeter=0;entryX=0.999;entryY=0.364;entryDx=0;entryDy=0;entryPerimeter=0;labelBackgroundColor=none;strokeColor=#A8201A;fontColor=default;" edge="1" parent="1" source="fqUu2-JQJaLycMAC4psw-5" target="fqUu2-JQJaLycMAC4psw-5">
          <mxGeometry width="50" height="50" relative="1" as="geometry">
            <mxPoint x="260" y="310" as="sourcePoint" />
            <mxPoint x="310" y="260" as="targetPoint" />
          </mxGeometry>
        </mxCell>
        <mxCell id="fqUu2-JQJaLycMAC4psw-11" value="&lt;font style=&quot;font-size: 8px;&quot;&gt;Click &quot;view payment logs&quot; button&lt;/font&gt;" style="html=1;verticalAlign=bottom;endArrow=block;entryX=0;entryY=0;labelBackgroundColor=none;fontFamily=Verdana;fontSize=12;edgeStyle=elbowEdgeStyle;elbow=vertical;strokeColor=#A8201A;fontColor=default;" edge="1" parent="1">
          <mxGeometry x="-0.0022" relative="1" as="geometry">
            <mxPoint x="155" y="324.93" as="sourcePoint" />
            <mxPoint x="325" y="324.93" as="targetPoint" />
            <mxPoint as="offset" />
          </mxGeometry>
        </mxCell>
        <mxCell id="fqUu2-JQJaLycMAC4psw-16" value="&lt;font style=&quot;font-size: 8px;&quot;&gt;viewPaymentLogs()&lt;/font&gt;" style="html=1;verticalAlign=bottom;endArrow=block;labelBackgroundColor=none;fontFamily=Verdana;fontSize=12;edgeStyle=elbowEdgeStyle;elbow=vertical;exitX=0.957;exitY=0.442;exitDx=0;exitDy=0;exitPerimeter=0;entryX=-0.01;entryY=0.431;entryDx=0;entryDy=0;entryPerimeter=0;strokeColor=#A8201A;fontColor=default;" edge="1" parent="1" target="fqUu2-JQJaLycMAC4psw-17">
          <mxGeometry x="-0.0022" relative="1" as="geometry">
            <mxPoint x="514.5699999999999" y="340.59" as="sourcePoint" />
            <mxPoint x="580" y="340" as="targetPoint" />
            <mxPoint as="offset" />
          </mxGeometry>
        </mxCell>
        <mxCell id="fqUu2-JQJaLycMAC4psw-17" value="Ref" style="shape=umlFrame;whiteSpace=wrap;html=1;pointerEvents=0;labelBackgroundColor=none;fillColor=#FAE5C7;strokeColor=#0F8B8D;fontColor=#143642;rounded=1;" vertex="1" parent="1">
          <mxGeometry x="610" y="310" width="140" height="70" as="geometry" />
        </mxCell>
        <mxCell id="fqUu2-JQJaLycMAC4psw-19" value="&lt;font style=&quot;font-size: 10px;&quot;&gt;[View payment logs ]&lt;/font&gt;" style="text;html=1;strokeColor=none;fillColor=none;align=center;verticalAlign=middle;whiteSpace=wrap;rounded=1;labelBackgroundColor=none;fontColor=#143642;" vertex="1" parent="1">
          <mxGeometry x="610" y="340" width="70" height="30" as="geometry" />
        </mxCell>
        <mxCell id="fqUu2-JQJaLycMAC4psw-20" value="&lt;font style=&quot;font-size: 10px;&quot;&gt;[Buy printing page option]&lt;/font&gt;" style="text;html=1;strokeColor=none;fillColor=none;align=center;verticalAlign=middle;whiteSpace=wrap;rounded=1;labelBackgroundColor=none;fontColor=#143642;" vertex="1" parent="1">
          <mxGeometry x="10" y="420" width="130" height="30" as="geometry" />
        </mxCell>
        <mxCell id="fqUu2-JQJaLycMAC4psw-21" value="&lt;font style=&quot;font-size: 8px;&quot;&gt;Click &quot;Buy printing page&quot; button&lt;/font&gt;" style="html=1;verticalAlign=bottom;endArrow=block;entryX=0;entryY=0;labelBackgroundColor=none;fontFamily=Verdana;fontSize=12;edgeStyle=elbowEdgeStyle;elbow=vertical;strokeColor=#A8201A;fontColor=default;" edge="1" parent="1">
          <mxGeometry x="-0.0022" relative="1" as="geometry">
            <mxPoint x="155" y="434.76" as="sourcePoint" />
            <mxPoint x="325" y="434.76" as="targetPoint" />
            <mxPoint as="offset" />
          </mxGeometry>
        </mxCell>
        <mxCell id="fqUu2-JQJaLycMAC4psw-24" value="Ref" style="shape=umlFrame;whiteSpace=wrap;html=1;pointerEvents=0;labelBackgroundColor=none;fillColor=#FAE5C7;strokeColor=#0F8B8D;fontColor=#143642;rounded=1;" vertex="1" parent="1">
          <mxGeometry x="610" y="430" width="140" height="70" as="geometry" />
        </mxCell>
        <mxCell id="fqUu2-JQJaLycMAC4psw-25" value="&lt;span style=&quot;font-size: 10px;&quot;&gt;[Buy printing page]&lt;/span&gt;" style="text;html=1;strokeColor=none;fillColor=none;align=center;verticalAlign=middle;whiteSpace=wrap;rounded=1;labelBackgroundColor=none;fontColor=#143642;" vertex="1" parent="1">
          <mxGeometry x="610" y="460" width="70" height="30" as="geometry" />
        </mxCell>
        <mxCell id="fqUu2-JQJaLycMAC4psw-27" value="&lt;font style=&quot;font-size: 8px;&quot;&gt;buyPrintingPage()&lt;/font&gt;" style="html=1;verticalAlign=bottom;endArrow=block;labelBackgroundColor=none;fontFamily=Verdana;fontSize=12;edgeStyle=elbowEdgeStyle;elbow=vertical;exitX=0.96;exitY=0.708;exitDx=0;exitDy=0;exitPerimeter=0;entryX=-0.012;entryY=0.673;entryDx=0;entryDy=0;entryPerimeter=0;strokeColor=#A8201A;fontColor=default;" edge="1" parent="1" source="7baba1c4bc27f4b0-10" target="7baba1c4bc27f4b0-13">
          <mxGeometry x="-0.0022" relative="1" as="geometry">
            <mxPoint x="340" y="450.11" as="sourcePoint" />
            <mxPoint x="500" y="450" as="targetPoint" />
            <mxPoint as="offset" />
          </mxGeometry>
        </mxCell>
        <mxCell id="fqUu2-JQJaLycMAC4psw-28" value="&lt;font style=&quot;font-size: 8px;&quot;&gt;buyPrintingPage()&lt;/font&gt;" style="html=1;verticalAlign=bottom;endArrow=block;labelBackgroundColor=none;fontFamily=Verdana;fontSize=12;edgeStyle=elbowEdgeStyle;elbow=vertical;exitX=0.996;exitY=0.742;exitDx=0;exitDy=0;exitPerimeter=0;entryX=-0.01;entryY=0.503;entryDx=0;entryDy=0;entryPerimeter=0;strokeColor=#A8201A;fontColor=default;" edge="1" parent="1" source="7baba1c4bc27f4b0-13" target="fqUu2-JQJaLycMAC4psw-25">
          <mxGeometry x="-0.0022" relative="1" as="geometry">
            <mxPoint x="530" y="474.88" as="sourcePoint" />
            <mxPoint x="590" y="475" as="targetPoint" />
            <mxPoint as="offset" />
          </mxGeometry>
        </mxCell>
        <mxCell id="fqUu2-JQJaLycMAC4psw-59" value="Page balance screen" style="shape=umlLifeline;perimeter=lifelinePerimeter;whiteSpace=wrap;html=1;container=1;collapsible=0;recursiveResize=0;outlineConnect=0;rounded=1;shadow=0;comic=0;labelBackgroundColor=none;strokeWidth=1;fontFamily=Verdana;fontSize=12;align=center;fillColor=#FAE5C7;strokeColor=#0F8B8D;fontColor=#143642;" vertex="1" parent="1">
          <mxGeometry x="1600" y="70" width="100" height="580" as="geometry" />
        </mxCell>
        <mxCell id="fqUu2-JQJaLycMAC4psw-60" value="" style="html=1;points=[];perimeter=orthogonalPerimeter;rounded=1;shadow=0;comic=0;labelBackgroundColor=none;strokeWidth=1;fontFamily=Verdana;fontSize=12;align=center;fillColor=#FAE5C7;strokeColor=#0F8B8D;fontColor=#143642;" vertex="1" parent="fqUu2-JQJaLycMAC4psw-59">
          <mxGeometry x="45" y="100" width="10" height="380" as="geometry" />
        </mxCell>
        <mxCell id="fqUu2-JQJaLycMAC4psw-61" value=":Page balance controller" style="shape=umlLifeline;perimeter=lifelinePerimeter;whiteSpace=wrap;html=1;container=1;collapsible=0;recursiveResize=0;outlineConnect=0;rounded=1;shadow=0;comic=0;labelBackgroundColor=none;strokeWidth=1;fontFamily=Verdana;fontSize=12;align=center;fillColor=#FAE5C7;strokeColor=#0F8B8D;fontColor=#143642;" vertex="1" parent="1">
          <mxGeometry x="1780" y="70" width="100" height="580" as="geometry" />
        </mxCell>
        <mxCell id="fqUu2-JQJaLycMAC4psw-62" value="" style="html=1;points=[];perimeter=orthogonalPerimeter;rounded=1;shadow=0;comic=0;labelBackgroundColor=none;strokeWidth=1;fontFamily=Verdana;fontSize=12;align=center;fillColor=#FAE5C7;strokeColor=#0F8B8D;fontColor=#143642;" vertex="1" parent="fqUu2-JQJaLycMAC4psw-61">
          <mxGeometry x="45" y="120" width="10" height="370" as="geometry" />
        </mxCell>
        <mxCell id="fqUu2-JQJaLycMAC4psw-63" value=":SystemDb" style="shape=umlLifeline;perimeter=lifelinePerimeter;whiteSpace=wrap;html=1;container=1;collapsible=0;recursiveResize=0;outlineConnect=0;rounded=1;shadow=0;comic=0;labelBackgroundColor=none;strokeWidth=1;fontFamily=Verdana;fontSize=12;align=center;fillColor=#FAE5C7;strokeColor=#0F8B8D;fontColor=#143642;" vertex="1" parent="1">
          <mxGeometry x="1960" y="70" width="100" height="580" as="geometry" />
        </mxCell>
        <mxCell id="fqUu2-JQJaLycMAC4psw-64" value="" style="html=1;points=[];perimeter=orthogonalPerimeter;rounded=1;shadow=0;comic=0;labelBackgroundColor=none;strokeWidth=1;fontFamily=Verdana;fontSize=12;align=center;fillColor=#FAE5C7;strokeColor=#0F8B8D;fontColor=#143642;" vertex="1" parent="fqUu2-JQJaLycMAC4psw-63">
          <mxGeometry x="45" y="140" width="10" height="360" as="geometry" />
        </mxCell>
        <mxCell id="fqUu2-JQJaLycMAC4psw-65" value=":Online payment" style="shape=umlLifeline;perimeter=lifelinePerimeter;whiteSpace=wrap;html=1;container=1;collapsible=0;recursiveResize=0;outlineConnect=0;rounded=1;shadow=0;comic=0;labelBackgroundColor=none;strokeWidth=1;fontFamily=Verdana;fontSize=12;align=center;fillColor=#FAE5C7;strokeColor=#0F8B8D;fontColor=#143642;" vertex="1" parent="1">
          <mxGeometry x="2140" y="70" width="100" height="580" as="geometry" />
        </mxCell>
        <mxCell id="fqUu2-JQJaLycMAC4psw-66" value="&lt;font style=&quot;font-size: 8px;&quot;&gt;Click&quot; view payment logs&quot; button&lt;/font&gt;" style="html=1;verticalAlign=bottom;endArrow=block;entryX=0;entryY=0;labelBackgroundColor=none;fontFamily=Verdana;fontSize=12;edgeStyle=elbowEdgeStyle;elbow=vertical;strokeColor=#A8201A;fontColor=default;" edge="1" parent="1" target="fqUu2-JQJaLycMAC4psw-60">
          <mxGeometry x="-0.0022" relative="1" as="geometry">
            <mxPoint x="1475" y="170" as="sourcePoint" />
            <mxPoint as="offset" />
          </mxGeometry>
        </mxCell>
        <mxCell id="fqUu2-JQJaLycMAC4psw-67" value="&lt;font style=&quot;font-size: 8px;&quot;&gt;viewPaymentLogs()&lt;/font&gt;" style="html=1;verticalAlign=bottom;endArrow=block;entryX=0;entryY=0;labelBackgroundColor=none;fontFamily=Verdana;fontSize=12;edgeStyle=elbowEdgeStyle;elbow=vertical;strokeColor=#A8201A;fontColor=default;" edge="1" parent="1" source="fqUu2-JQJaLycMAC4psw-60" target="fqUu2-JQJaLycMAC4psw-62">
          <mxGeometry relative="1" as="geometry">
            <mxPoint x="1690" y="190" as="sourcePoint" />
          </mxGeometry>
        </mxCell>
        <mxCell id="fqUu2-JQJaLycMAC4psw-68" value="" style="shape=umlLifeline;perimeter=lifelinePerimeter;whiteSpace=wrap;html=1;container=1;dropTarget=0;collapsible=0;recursiveResize=0;outlineConnect=0;portConstraint=eastwest;newEdgeStyle={&quot;curved&quot;:0,&quot;rounded&quot;:0};participant=umlActor;labelBackgroundColor=none;fillColor=#FAE5C7;strokeColor=#0F8B8D;fontColor=#143642;rounded=1;" vertex="1" parent="1">
          <mxGeometry x="1460" y="70" width="20" height="580" as="geometry" />
        </mxCell>
        <mxCell id="fqUu2-JQJaLycMAC4psw-69" value="" style="html=1;points=[];perimeter=orthogonalPerimeter;rounded=1;shadow=0;comic=0;labelBackgroundColor=none;strokeWidth=1;fontFamily=Verdana;fontSize=12;align=center;fillColor=#FAE5C7;strokeColor=#0F8B8D;fontColor=#143642;" vertex="1" parent="1">
          <mxGeometry x="1465" y="160" width="10" height="380" as="geometry" />
        </mxCell>
        <mxCell id="fqUu2-JQJaLycMAC4psw-70" value="Student" style="text;html=1;align=center;verticalAlign=middle;resizable=0;points=[];autosize=1;strokeColor=none;fillColor=none;labelBackgroundColor=none;fontColor=#143642;rounded=1;" vertex="1" parent="1">
          <mxGeometry x="1415" y="100" width="60" height="30" as="geometry" />
        </mxCell>
        <mxCell id="fqUu2-JQJaLycMAC4psw-71" value="&lt;font style=&quot;font-size: 8px;&quot;&gt;viewPaymentLogs()&lt;/font&gt;" style="html=1;verticalAlign=bottom;endArrow=block;labelBackgroundColor=none;fontFamily=Verdana;fontSize=12;edgeStyle=elbowEdgeStyle;elbow=horizontal;entryX=0.5;entryY=0.061;entryDx=0;entryDy=0;entryPerimeter=0;strokeColor=#A8201A;fontColor=default;" edge="1" parent="1">
          <mxGeometry relative="1" as="geometry">
            <mxPoint x="1835" y="209.99809523809517" as="sourcePoint" />
            <Array as="points" />
            <mxPoint x="2005" y="210.13" as="targetPoint" />
          </mxGeometry>
        </mxCell>
        <mxCell id="fqUu2-JQJaLycMAC4psw-72" value="Alt" style="shape=umlFrame;whiteSpace=wrap;html=1;pointerEvents=0;labelBackgroundColor=none;fillColor=#FAE5C7;strokeColor=#0F8B8D;fontColor=#143642;rounded=1;" vertex="1" parent="1">
          <mxGeometry x="1330" y="150" width="1160" height="460" as="geometry" />
        </mxCell>
        <mxCell id="fqUu2-JQJaLycMAC4psw-73" value="&lt;font style=&quot;font-size: 8px;&quot;&gt;Open payment logs window&lt;/font&gt;" style="html=1;verticalAlign=bottom;endArrow=open;dashed=1;endSize=8;labelBackgroundColor=none;fontFamily=Verdana;fontSize=12;exitX=-0.242;exitY=0.108;exitDx=0;exitDy=0;exitPerimeter=0;entryX=0.964;entryY=0.16;entryDx=0;entryDy=0;entryPerimeter=0;strokeColor=#A8201A;fontColor=default;" edge="1" parent="1" source="fqUu2-JQJaLycMAC4psw-64" target="fqUu2-JQJaLycMAC4psw-62">
          <mxGeometry relative="1" as="geometry">
            <mxPoint x="2052.5" y="839" as="targetPoint" />
            <mxPoint x="2328" y="840" as="sourcePoint" />
          </mxGeometry>
        </mxCell>
        <mxCell id="fqUu2-JQJaLycMAC4psw-74" value="&lt;span style=&quot;font-size: 8px;&quot;&gt;Show payment logs window&lt;/span&gt;" style="html=1;verticalAlign=bottom;endArrow=open;dashed=1;endSize=8;labelBackgroundColor=none;fontFamily=Verdana;fontSize=12;exitX=-0.242;exitY=0.108;exitDx=0;exitDy=0;exitPerimeter=0;entryX=0.964;entryY=0.16;entryDx=0;entryDy=0;entryPerimeter=0;strokeColor=#A8201A;fontColor=default;" edge="1" parent="1">
          <mxGeometry relative="1" as="geometry">
            <mxPoint x="1655" y="250" as="targetPoint" />
            <mxPoint x="1823" y="252" as="sourcePoint" />
          </mxGeometry>
        </mxCell>
        <mxCell id="fqUu2-JQJaLycMAC4psw-75" value="&lt;span style=&quot;font-size: 8px;&quot;&gt;Show payment logs window&lt;/span&gt;" style="html=1;verticalAlign=bottom;endArrow=open;dashed=1;endSize=8;labelBackgroundColor=none;fontFamily=Verdana;fontSize=12;exitX=-0.242;exitY=0.108;exitDx=0;exitDy=0;exitPerimeter=0;entryX=0.964;entryY=0.16;entryDx=0;entryDy=0;entryPerimeter=0;strokeColor=#A8201A;fontColor=default;" edge="1" parent="1">
          <mxGeometry relative="1" as="geometry">
            <mxPoint x="1475" y="260" as="targetPoint" />
            <mxPoint x="1643" y="262" as="sourcePoint" />
          </mxGeometry>
        </mxCell>
        <mxCell id="fqUu2-JQJaLycMAC4psw-76" value="&lt;font style=&quot;font-size: 10px;&quot;&gt;View payment logs&lt;/font&gt;" style="text;html=1;strokeColor=none;fillColor=none;align=center;verticalAlign=middle;whiteSpace=wrap;rounded=1;labelBackgroundColor=none;fontColor=#143642;" vertex="1" parent="1">
          <mxGeometry x="1330" y="180" width="130" height="30" as="geometry" />
        </mxCell>
        <mxCell id="fqUu2-JQJaLycMAC4psw-89" value="&lt;font style=&quot;font-size: 8px;&quot;&gt;viewPaymentLogs()&lt;/font&gt;" style="html=1;verticalAlign=bottom;endArrow=block;labelBackgroundColor=none;fontFamily=Verdana;fontSize=12;edgeStyle=elbowEdgeStyle;elbow=vertical;entryX=-0.006;entryY=0.376;entryDx=0;entryDy=0;entryPerimeter=0;exitX=1.022;exitY=0.422;exitDx=0;exitDy=0;exitPerimeter=0;strokeColor=#A8201A;fontColor=default;" edge="1" parent="1" source="7baba1c4bc27f4b0-10" target="7baba1c4bc27f4b0-13">
          <mxGeometry x="-0.0022" relative="1" as="geometry">
            <mxPoint x="350" y="340" as="sourcePoint" />
            <mxPoint x="500" y="339.67" as="targetPoint" />
            <mxPoint as="offset" />
          </mxGeometry>
        </mxCell>
        <mxCell id="fqUu2-JQJaLycMAC4psw-90" value="&lt;span style=&quot;font-size: 8px;&quot;&gt;Select timeline&lt;/span&gt;" style="html=1;verticalAlign=bottom;endArrow=block;labelBackgroundColor=none;fontFamily=Verdana;fontSize=12;edgeStyle=elbowEdgeStyle;elbow=vertical;exitX=1.005;exitY=0.363;exitDx=0;exitDy=0;exitPerimeter=0;entryX=0.04;entryY=0.338;entryDx=0;entryDy=0;entryPerimeter=0;strokeColor=#A8201A;fontColor=default;" edge="1" parent="1" source="fqUu2-JQJaLycMAC4psw-69" target="fqUu2-JQJaLycMAC4psw-60">
          <mxGeometry x="-0.0022" relative="1" as="geometry">
            <mxPoint x="1480" y="299.52" as="sourcePoint" />
            <mxPoint as="offset" />
            <mxPoint x="1630" y="298" as="targetPoint" />
          </mxGeometry>
        </mxCell>
        <mxCell id="fqUu2-JQJaLycMAC4psw-91" value="&lt;span style=&quot;font-size: 8px;&quot;&gt;Request to show payment &lt;br&gt;logs of this timeline&lt;/span&gt;" style="html=1;verticalAlign=bottom;endArrow=block;labelBackgroundColor=none;fontFamily=Verdana;fontSize=12;edgeStyle=elbowEdgeStyle;elbow=vertical;exitX=0.927;exitY=0.379;exitDx=0;exitDy=0;exitPerimeter=0;entryX=-0.044;entryY=0.337;entryDx=0;entryDy=0;entryPerimeter=0;strokeColor=#A8201A;fontColor=default;" edge="1" parent="1" source="fqUu2-JQJaLycMAC4psw-60" target="fqUu2-JQJaLycMAC4psw-62">
          <mxGeometry x="-0.0022" relative="1" as="geometry">
            <mxPoint x="1665" y="314.8" as="sourcePoint" />
            <mxPoint as="offset" />
            <mxPoint x="1790" y="314" as="targetPoint" />
          </mxGeometry>
        </mxCell>
        <mxCell id="fqUu2-JQJaLycMAC4psw-92" value="&lt;span style=&quot;font-size: 8px;&quot;&gt;Check valid of this timeline&lt;/span&gt;" style="html=1;verticalAlign=bottom;endArrow=block;labelBackgroundColor=none;fontFamily=Verdana;fontSize=12;edgeStyle=elbowEdgeStyle;elbow=vertical;exitX=0.93;exitY=0.378;exitDx=0;exitDy=0;exitPerimeter=0;entryX=-0.019;entryY=0.333;entryDx=0;entryDy=0;entryPerimeter=0;strokeColor=#A8201A;fontColor=default;" edge="1" parent="1" source="fqUu2-JQJaLycMAC4psw-62" target="fqUu2-JQJaLycMAC4psw-64">
          <mxGeometry x="-0.0022" relative="1" as="geometry">
            <mxPoint x="1840" y="329" as="sourcePoint" />
            <mxPoint as="offset" />
            <mxPoint x="2000" y="330" as="targetPoint" />
          </mxGeometry>
        </mxCell>
        <mxCell id="fqUu2-JQJaLycMAC4psw-93" value="Alt" style="shape=umlFrame;whiteSpace=wrap;html=1;pointerEvents=0;labelBackgroundColor=none;fillColor=#FAE5C7;strokeColor=#0F8B8D;fontColor=#143642;rounded=1;" vertex="1" parent="1">
          <mxGeometry x="1370" y="350" width="710" height="190" as="geometry" />
        </mxCell>
        <mxCell id="fqUu2-JQJaLycMAC4psw-94" value="&lt;font style=&quot;font-size: 8px;&quot;&gt;valid&lt;/font&gt;" style="html=1;verticalAlign=bottom;endArrow=open;dashed=1;endSize=8;labelBackgroundColor=none;fontFamily=Verdana;fontSize=12;entryX=0.906;entryY=0.512;entryDx=0;entryDy=0;entryPerimeter=0;exitX=-0.017;exitY=0.472;exitDx=0;exitDy=0;exitPerimeter=0;strokeColor=#A8201A;fontColor=default;" edge="1" parent="1" source="fqUu2-JQJaLycMAC4psw-64" target="fqUu2-JQJaLycMAC4psw-62">
          <mxGeometry relative="1" as="geometry">
            <mxPoint x="1845" y="379.9" as="targetPoint" />
            <mxPoint x="2000" y="380" as="sourcePoint" />
          </mxGeometry>
        </mxCell>
        <mxCell id="fqUu2-JQJaLycMAC4psw-95" value="&lt;font style=&quot;font-size: 10px;&quot;&gt;valid timeline&lt;/font&gt;" style="text;html=1;strokeColor=none;fillColor=none;align=center;verticalAlign=middle;whiteSpace=wrap;rounded=1;labelBackgroundColor=none;fontColor=#143642;" vertex="1" parent="1">
          <mxGeometry x="1350" y="380" width="130" height="30" as="geometry" />
        </mxCell>
        <mxCell id="fqUu2-JQJaLycMAC4psw-96" value="&lt;span style=&quot;font-size: 8px;&quot;&gt;Show payment logs&lt;/span&gt;" style="html=1;verticalAlign=bottom;endArrow=open;dashed=1;endSize=8;labelBackgroundColor=none;fontFamily=Verdana;fontSize=12;exitX=0.006;exitY=0.555;exitDx=0;exitDy=0;exitPerimeter=0;entryX=1.041;entryY=0.593;entryDx=0;entryDy=0;entryPerimeter=0;strokeColor=#A8201A;fontColor=default;" edge="1" parent="1" source="fqUu2-JQJaLycMAC4psw-62" target="fqUu2-JQJaLycMAC4psw-60">
          <mxGeometry relative="1" as="geometry">
            <mxPoint x="1680" y="395" as="targetPoint" />
            <mxPoint x="1821" y="395.5" as="sourcePoint" />
          </mxGeometry>
        </mxCell>
        <mxCell id="fqUu2-JQJaLycMAC4psw-97" value="&lt;span style=&quot;font-size: 8px;&quot;&gt;Show payment logs&lt;/span&gt;" style="html=1;verticalAlign=bottom;endArrow=open;dashed=1;endSize=8;labelBackgroundColor=none;fontFamily=Verdana;fontSize=12;exitX=0.006;exitY=0.555;exitDx=0;exitDy=0;exitPerimeter=0;entryX=1.041;entryY=0.593;entryDx=0;entryDy=0;entryPerimeter=0;strokeColor=#A8201A;fontColor=default;" edge="1" parent="1">
          <mxGeometry relative="1" as="geometry">
            <mxPoint x="1475" y="409.52" as="targetPoint" />
            <mxPoint x="1645" y="409.52" as="sourcePoint" />
          </mxGeometry>
        </mxCell>
        <mxCell id="fqUu2-JQJaLycMAC4psw-98" value="" style="endArrow=none;dashed=1;html=1;dashPattern=1 3;strokeWidth=2;rounded=1;exitX=0.002;exitY=0.596;exitDx=0;exitDy=0;exitPerimeter=0;entryX=1.001;entryY=0.496;entryDx=0;entryDy=0;entryPerimeter=0;labelBackgroundColor=none;strokeColor=#A8201A;fontColor=default;" edge="1" parent="1" target="fqUu2-JQJaLycMAC4psw-93">
          <mxGeometry width="50" height="50" relative="1" as="geometry">
            <mxPoint x="1372.2700000000002" y="446.14" as="sourcePoint" />
            <mxPoint x="2277.72" y="443.8599999999998" as="targetPoint" />
          </mxGeometry>
        </mxCell>
        <mxCell id="fqUu2-JQJaLycMAC4psw-99" value="&lt;font style=&quot;font-size: 10px;&quot;&gt;invalid timeline&lt;/font&gt;" style="text;html=1;strokeColor=none;fillColor=none;align=center;verticalAlign=middle;whiteSpace=wrap;rounded=1;labelBackgroundColor=none;fontColor=#143642;" vertex="1" parent="1">
          <mxGeometry x="1350" y="460" width="130" height="30" as="geometry" />
        </mxCell>
        <mxCell id="fqUu2-JQJaLycMAC4psw-100" value="&lt;font style=&quot;font-size: 8px;&quot;&gt;invalid&lt;/font&gt;" style="html=1;verticalAlign=bottom;endArrow=open;dashed=1;endSize=8;labelBackgroundColor=none;fontFamily=Verdana;fontSize=12;entryX=1.005;entryY=0.785;entryDx=0;entryDy=0;entryPerimeter=0;exitX=-0.085;exitY=0.75;exitDx=0;exitDy=0;exitPerimeter=0;strokeColor=#A8201A;fontColor=default;" edge="1" parent="1" source="fqUu2-JQJaLycMAC4psw-64" target="fqUu2-JQJaLycMAC4psw-62">
          <mxGeometry relative="1" as="geometry">
            <mxPoint x="1844" y="480" as="targetPoint" />
            <mxPoint x="1990" y="480" as="sourcePoint" />
          </mxGeometry>
        </mxCell>
        <mxCell id="fqUu2-JQJaLycMAC4psw-102" value="&lt;font style=&quot;font-size: 8px;&quot;&gt;invalid&lt;/font&gt;" style="html=1;verticalAlign=bottom;endArrow=open;dashed=1;endSize=8;labelBackgroundColor=none;fontFamily=Verdana;fontSize=12;exitX=-0.043;exitY=0.811;exitDx=0;exitDy=0;exitPerimeter=0;entryX=0.985;entryY=0.843;entryDx=0;entryDy=0;entryPerimeter=0;strokeColor=#A8201A;fontColor=default;" edge="1" parent="1" source="fqUu2-JQJaLycMAC4psw-62" target="fqUu2-JQJaLycMAC4psw-60">
          <mxGeometry relative="1" as="geometry">
            <mxPoint x="1660" y="490" as="targetPoint" />
            <mxPoint x="1819" y="490" as="sourcePoint" />
          </mxGeometry>
        </mxCell>
        <mxCell id="fqUu2-JQJaLycMAC4psw-103" value="&lt;font style=&quot;font-size: 8px;&quot;&gt;Notify error and request&lt;br&gt;&amp;nbsp;to choose new timeline&lt;/font&gt;" style="html=1;verticalAlign=bottom;endArrow=open;dashed=1;endSize=8;labelBackgroundColor=none;fontFamily=Verdana;fontSize=12;exitX=-0.043;exitY=0.811;exitDx=0;exitDy=0;exitPerimeter=0;entryX=0.985;entryY=0.843;entryDx=0;entryDy=0;entryPerimeter=0;strokeColor=#A8201A;fontColor=default;" edge="1" parent="1">
          <mxGeometry relative="1" as="geometry">
            <mxPoint x="1475" y="500" as="targetPoint" />
            <mxPoint x="1645" y="500" as="sourcePoint" />
          </mxGeometry>
        </mxCell>
        <mxCell id="fqUu2-JQJaLycMAC4psw-104" value="Page balance screen" style="shape=umlLifeline;perimeter=lifelinePerimeter;whiteSpace=wrap;html=1;container=1;collapsible=0;recursiveResize=0;outlineConnect=0;rounded=1;shadow=0;comic=0;labelBackgroundColor=none;strokeWidth=1;fontFamily=Verdana;fontSize=12;align=center;fillColor=#FAE5C7;strokeColor=#0F8B8D;fontColor=#143642;" vertex="1" parent="1">
          <mxGeometry x="280" y="830" width="100" height="720" as="geometry" />
        </mxCell>
        <mxCell id="fqUu2-JQJaLycMAC4psw-105" value="" style="html=1;points=[];perimeter=orthogonalPerimeter;rounded=1;shadow=0;comic=0;labelBackgroundColor=none;strokeWidth=1;fontFamily=Verdana;fontSize=12;align=center;fillColor=#FAE5C7;strokeColor=#0F8B8D;fontColor=#143642;" vertex="1" parent="fqUu2-JQJaLycMAC4psw-104">
          <mxGeometry x="45" y="100" width="10" height="570" as="geometry" />
        </mxCell>
        <mxCell id="fqUu2-JQJaLycMAC4psw-106" value=":Page balance controller" style="shape=umlLifeline;perimeter=lifelinePerimeter;whiteSpace=wrap;html=1;container=1;collapsible=0;recursiveResize=0;outlineConnect=0;rounded=1;shadow=0;comic=0;labelBackgroundColor=none;strokeWidth=1;fontFamily=Verdana;fontSize=12;align=center;fillColor=#FAE5C7;strokeColor=#0F8B8D;fontColor=#143642;" vertex="1" parent="1">
          <mxGeometry x="460" y="830" width="100" height="720" as="geometry" />
        </mxCell>
        <mxCell id="fqUu2-JQJaLycMAC4psw-107" value="" style="html=1;points=[];perimeter=orthogonalPerimeter;rounded=1;shadow=0;comic=0;labelBackgroundColor=none;strokeWidth=1;fontFamily=Verdana;fontSize=12;align=center;fillColor=#FAE5C7;strokeColor=#0F8B8D;fontColor=#143642;" vertex="1" parent="fqUu2-JQJaLycMAC4psw-106">
          <mxGeometry x="45" y="120" width="10" height="530" as="geometry" />
        </mxCell>
        <mxCell id="fqUu2-JQJaLycMAC4psw-108" value=":SystemDb" style="shape=umlLifeline;perimeter=lifelinePerimeter;whiteSpace=wrap;html=1;container=1;collapsible=0;recursiveResize=0;outlineConnect=0;rounded=1;shadow=0;comic=0;labelBackgroundColor=none;strokeWidth=1;fontFamily=Verdana;fontSize=12;align=center;fillColor=#FAE5C7;strokeColor=#0F8B8D;fontColor=#143642;" vertex="1" parent="1">
          <mxGeometry x="640" y="830" width="100" height="720" as="geometry" />
        </mxCell>
        <mxCell id="fqUu2-JQJaLycMAC4psw-109" value="" style="html=1;points=[];perimeter=orthogonalPerimeter;rounded=1;shadow=0;comic=0;labelBackgroundColor=none;strokeWidth=1;fontFamily=Verdana;fontSize=12;align=center;fillColor=#FAE5C7;strokeColor=#0F8B8D;fontColor=#143642;" vertex="1" parent="fqUu2-JQJaLycMAC4psw-108">
          <mxGeometry x="45" y="140" width="10" height="500" as="geometry" />
        </mxCell>
        <mxCell id="fqUu2-JQJaLycMAC4psw-110" value=":Online payment" style="shape=umlLifeline;perimeter=lifelinePerimeter;whiteSpace=wrap;html=1;container=1;collapsible=0;recursiveResize=0;outlineConnect=0;rounded=1;shadow=0;comic=0;labelBackgroundColor=none;strokeWidth=1;fontFamily=Verdana;fontSize=12;align=center;fillColor=#FAE5C7;strokeColor=#0F8B8D;fontColor=#143642;" vertex="1" parent="1">
          <mxGeometry x="820" y="830" width="100" height="610" as="geometry" />
        </mxCell>
        <mxCell id="fqUu2-JQJaLycMAC4psw-137" value="" style="html=1;points=[];perimeter=orthogonalPerimeter;rounded=1;shadow=0;comic=0;labelBackgroundColor=none;strokeWidth=1;fontFamily=Verdana;fontSize=12;align=center;fillColor=#FAE5C7;strokeColor=#0F8B8D;fontColor=#143642;" vertex="1" parent="fqUu2-JQJaLycMAC4psw-110">
          <mxGeometry x="45" y="290" width="10" height="220" as="geometry" />
        </mxCell>
        <mxCell id="fqUu2-JQJaLycMAC4psw-111" value="&lt;font style=&quot;font-size: 8px;&quot;&gt;Click &quot;Buy printing page &quot;button&lt;/font&gt;" style="html=1;verticalAlign=bottom;endArrow=block;labelBackgroundColor=none;fontFamily=Verdana;fontSize=12;edgeStyle=elbowEdgeStyle;elbow=vertical;entryX=0.065;entryY=0;entryDx=0;entryDy=0;entryPerimeter=0;strokeColor=#A8201A;fontColor=default;" edge="1" parent="1" target="fqUu2-JQJaLycMAC4psw-105">
          <mxGeometry x="-0.0022" relative="1" as="geometry">
            <mxPoint x="155" y="930" as="sourcePoint" />
            <mxPoint as="offset" />
            <mxPoint x="320" y="930" as="targetPoint" />
          </mxGeometry>
        </mxCell>
        <mxCell id="fqUu2-JQJaLycMAC4psw-112" value="&lt;font style=&quot;font-size: 8px;&quot;&gt;buyPrintingPage()&lt;/font&gt;" style="html=1;verticalAlign=bottom;endArrow=block;labelBackgroundColor=none;fontFamily=Verdana;fontSize=12;edgeStyle=elbowEdgeStyle;elbow=vertical;entryX=0.028;entryY=0;entryDx=0;entryDy=0;entryPerimeter=0;strokeColor=#A8201A;fontColor=default;" edge="1" parent="1" source="fqUu2-JQJaLycMAC4psw-105" target="fqUu2-JQJaLycMAC4psw-107">
          <mxGeometry relative="1" as="geometry">
            <mxPoint x="370" y="950" as="sourcePoint" />
            <mxPoint x="490" y="950" as="targetPoint" />
          </mxGeometry>
        </mxCell>
        <mxCell id="fqUu2-JQJaLycMAC4psw-113" value="" style="shape=umlLifeline;perimeter=lifelinePerimeter;whiteSpace=wrap;html=1;container=1;dropTarget=0;collapsible=0;recursiveResize=0;outlineConnect=0;portConstraint=eastwest;newEdgeStyle={&quot;curved&quot;:0,&quot;rounded&quot;:0};participant=umlActor;labelBackgroundColor=none;fillColor=#FAE5C7;strokeColor=#0F8B8D;fontColor=#143642;rounded=1;" vertex="1" parent="1">
          <mxGeometry x="140" y="830" width="20" height="720" as="geometry" />
        </mxCell>
        <mxCell id="fqUu2-JQJaLycMAC4psw-114" value="" style="html=1;points=[];perimeter=orthogonalPerimeter;rounded=1;shadow=0;comic=0;labelBackgroundColor=none;strokeWidth=1;fontFamily=Verdana;fontSize=12;align=center;fillColor=#FAE5C7;strokeColor=#0F8B8D;fontColor=#143642;" vertex="1" parent="1">
          <mxGeometry x="145" y="920" width="10" height="590" as="geometry" />
        </mxCell>
        <mxCell id="fqUu2-JQJaLycMAC4psw-115" value="Student" style="text;html=1;align=center;verticalAlign=middle;resizable=0;points=[];autosize=1;strokeColor=none;fillColor=none;labelBackgroundColor=none;fontColor=#143642;rounded=1;" vertex="1" parent="1">
          <mxGeometry x="95" y="860" width="60" height="30" as="geometry" />
        </mxCell>
        <mxCell id="fqUu2-JQJaLycMAC4psw-116" value="&lt;font style=&quot;font-size: 8px;&quot;&gt;buyPrintingPage()&lt;/font&gt;" style="html=1;verticalAlign=bottom;endArrow=block;labelBackgroundColor=none;fontFamily=Verdana;fontSize=12;edgeStyle=elbowEdgeStyle;elbow=horizontal;entryX=0.114;entryY=0.001;entryDx=0;entryDy=0;entryPerimeter=0;strokeColor=#A8201A;fontColor=default;" edge="1" parent="1" target="fqUu2-JQJaLycMAC4psw-109">
          <mxGeometry relative="1" as="geometry">
            <mxPoint x="515" y="969.9980952380952" as="sourcePoint" />
            <Array as="points" />
            <mxPoint x="670" y="970" as="targetPoint" />
          </mxGeometry>
        </mxCell>
        <mxCell id="fqUu2-JQJaLycMAC4psw-117" value="Alt" style="shape=umlFrame;whiteSpace=wrap;html=1;pointerEvents=0;labelBackgroundColor=none;fillColor=#FAE5C7;strokeColor=#0F8B8D;fontColor=#143642;rounded=1;" vertex="1" parent="1">
          <mxGeometry x="10" y="910" width="1260" height="660" as="geometry" />
        </mxCell>
        <mxCell id="fqUu2-JQJaLycMAC4psw-118" value="&lt;font style=&quot;font-size: 8px;&quot;&gt;Open payment window&lt;/font&gt;" style="html=1;verticalAlign=bottom;endArrow=open;dashed=1;endSize=8;labelBackgroundColor=none;fontFamily=Verdana;fontSize=12;entryX=1.116;entryY=0.137;entryDx=0;entryDy=0;entryPerimeter=0;exitX=-0.156;exitY=0.063;exitDx=0;exitDy=0;exitPerimeter=0;strokeColor=#A8201A;fontColor=default;" edge="1" parent="1" source="fqUu2-JQJaLycMAC4psw-109">
          <mxGeometry relative="1" as="geometry">
            <mxPoint x="513.58" y="1000.0000000000001" as="targetPoint" />
            <mxPoint x="680" y="1000" as="sourcePoint" />
          </mxGeometry>
        </mxCell>
        <mxCell id="fqUu2-JQJaLycMAC4psw-119" value="&lt;span style=&quot;font-size: 8px;&quot;&gt;Show payment&amp;nbsp;window&lt;/span&gt;" style="html=1;verticalAlign=bottom;endArrow=open;dashed=1;endSize=8;labelBackgroundColor=none;fontFamily=Verdana;fontSize=12;exitX=-0.242;exitY=0.108;exitDx=0;exitDy=0;exitPerimeter=0;entryX=1.028;entryY=0.141;entryDx=0;entryDy=0;entryPerimeter=0;strokeColor=#A8201A;fontColor=default;" edge="1" parent="1" target="fqUu2-JQJaLycMAC4psw-105">
          <mxGeometry relative="1" as="geometry">
            <mxPoint x="340" y="1010" as="targetPoint" />
            <mxPoint x="503" y="1012" as="sourcePoint" />
          </mxGeometry>
        </mxCell>
        <mxCell id="fqUu2-JQJaLycMAC4psw-120" value="&lt;span style=&quot;font-size: 8px;&quot;&gt;Show payment window&lt;/span&gt;" style="html=1;verticalAlign=bottom;endArrow=open;dashed=1;endSize=8;labelBackgroundColor=none;fontFamily=Verdana;fontSize=12;exitX=-0.242;exitY=0.108;exitDx=0;exitDy=0;exitPerimeter=0;entryX=0.972;entryY=0.169;entryDx=0;entryDy=0;entryPerimeter=0;strokeColor=#A8201A;fontColor=default;" edge="1" parent="1" target="fqUu2-JQJaLycMAC4psw-114">
          <mxGeometry relative="1" as="geometry">
            <mxPoint x="170" y="1020" as="targetPoint" />
            <mxPoint x="323" y="1022" as="sourcePoint" />
          </mxGeometry>
        </mxCell>
        <mxCell id="fqUu2-JQJaLycMAC4psw-121" value="&lt;span style=&quot;font-size: 10px;&quot;&gt;[Buy printing page]&lt;/span&gt;" style="text;html=1;strokeColor=none;fillColor=none;align=center;verticalAlign=middle;whiteSpace=wrap;rounded=1;labelBackgroundColor=none;fontColor=#143642;" vertex="1" parent="1">
          <mxGeometry x="10" y="940" width="130" height="30" as="geometry" />
        </mxCell>
        <mxCell id="fqUu2-JQJaLycMAC4psw-122" value="&lt;span style=&quot;font-size: 8px;&quot;&gt;Select the number of pages to buy&lt;br&gt;&amp;amp; select payment method&lt;br&gt;&lt;/span&gt;" style="html=1;verticalAlign=bottom;endArrow=block;labelBackgroundColor=none;fontFamily=Verdana;fontSize=12;edgeStyle=elbowEdgeStyle;elbow=vertical;exitX=1.005;exitY=0.363;exitDx=0;exitDy=0;exitPerimeter=0;entryX=-0.066;entryY=0.263;entryDx=0;entryDy=0;entryPerimeter=0;strokeColor=#A8201A;fontColor=default;" edge="1" parent="1" target="fqUu2-JQJaLycMAC4psw-105">
          <mxGeometry x="-0.0022" relative="1" as="geometry">
            <mxPoint x="154.99999999999994" y="1079.9999999999998" as="sourcePoint" />
            <mxPoint as="offset" />
            <mxPoint x="310" y="1080" as="targetPoint" />
          </mxGeometry>
        </mxCell>
        <mxCell id="fqUu2-JQJaLycMAC4psw-123" value="&lt;font style=&quot;font-size: 8px;&quot;&gt;Request to open website &lt;br&gt;corresponding to method&lt;/font&gt;" style="html=1;verticalAlign=bottom;endArrow=block;labelBackgroundColor=none;fontFamily=Verdana;fontSize=12;edgeStyle=elbowEdgeStyle;elbow=vertical;exitX=0.927;exitY=0.379;exitDx=0;exitDy=0;exitPerimeter=0;entryX=0.023;entryY=0.283;entryDx=0;entryDy=0;entryPerimeter=0;strokeColor=#A8201A;fontColor=default;" edge="1" parent="1" target="fqUu2-JQJaLycMAC4psw-107">
          <mxGeometry x="-0.0022" relative="1" as="geometry">
            <mxPoint x="334.27" y="1100" as="sourcePoint" />
            <mxPoint as="offset" />
            <mxPoint x="490" y="1101" as="targetPoint" />
          </mxGeometry>
        </mxCell>
        <mxCell id="fqUu2-JQJaLycMAC4psw-124" value="&lt;font style=&quot;font-size: 8px;&quot;&gt;Request to open website&lt;br style=&quot;border-color: var(--border-color);&quot;&gt;corresponding to method&lt;/font&gt;" style="html=1;verticalAlign=bottom;endArrow=block;labelBackgroundColor=none;fontFamily=Verdana;fontSize=12;edgeStyle=elbowEdgeStyle;elbow=vertical;exitX=0.93;exitY=0.378;exitDx=0;exitDy=0;exitPerimeter=0;entryX=0.023;entryY=0.28;entryDx=0;entryDy=0;entryPerimeter=0;strokeColor=#A8201A;fontColor=default;" edge="1" parent="1" target="fqUu2-JQJaLycMAC4psw-109">
          <mxGeometry x="-0.0022" relative="1" as="geometry">
            <mxPoint x="514.3000000000002" y="1109.86" as="sourcePoint" />
            <mxPoint as="offset" />
            <mxPoint x="670" y="1110" as="targetPoint" />
          </mxGeometry>
        </mxCell>
        <mxCell id="fqUu2-JQJaLycMAC4psw-143" value="&lt;font style=&quot;font-size: 8px;&quot;&gt;Open website corresponding to chosen method&lt;/font&gt;" style="html=1;verticalAlign=bottom;endArrow=open;dashed=1;endSize=8;labelBackgroundColor=none;fontFamily=Verdana;fontSize=12;exitX=-0.054;exitY=0.091;exitDx=0;exitDy=0;exitPerimeter=0;entryX=0.953;entryY=0.371;entryDx=0;entryDy=0;entryPerimeter=0;strokeColor=#A8201A;fontColor=default;" edge="1" parent="1" source="fqUu2-JQJaLycMAC4psw-137" target="fqUu2-JQJaLycMAC4psw-114">
          <mxGeometry relative="1" as="geometry">
            <mxPoint x="170" y="1140" as="targetPoint" />
            <mxPoint x="860" y="1140" as="sourcePoint" />
          </mxGeometry>
        </mxCell>
        <mxCell id="fqUu2-JQJaLycMAC4psw-144" value="&lt;span style=&quot;font-size: 8px;&quot;&gt;Filling in information to login&lt;br&gt;&lt;/span&gt;" style="html=1;verticalAlign=bottom;endArrow=block;labelBackgroundColor=none;fontFamily=Verdana;fontSize=12;edgeStyle=elbowEdgeStyle;elbow=vertical;exitX=1.005;exitY=0.363;exitDx=0;exitDy=0;exitPerimeter=0;entryX=-0.067;entryY=0.27;entryDx=0;entryDy=0;entryPerimeter=0;strokeColor=#A8201A;fontColor=default;" edge="1" parent="1" target="fqUu2-JQJaLycMAC4psw-137">
          <mxGeometry x="-0.0022" relative="1" as="geometry">
            <mxPoint x="154.99999999999994" y="1179.9999999999998" as="sourcePoint" />
            <mxPoint as="offset" />
            <mxPoint x="860" y="1180" as="targetPoint" />
          </mxGeometry>
        </mxCell>
        <mxCell id="fqUu2-JQJaLycMAC4psw-146" value=":Online payment db" style="shape=umlLifeline;perimeter=lifelinePerimeter;whiteSpace=wrap;html=1;container=1;collapsible=0;recursiveResize=0;outlineConnect=0;rounded=1;shadow=0;comic=0;labelBackgroundColor=none;strokeWidth=1;fontFamily=Verdana;fontSize=12;align=center;fillColor=#FAE5C7;strokeColor=#0F8B8D;fontColor=#143642;" vertex="1" parent="1">
          <mxGeometry x="1000" y="830" width="100" height="720" as="geometry" />
        </mxCell>
        <mxCell id="fqUu2-JQJaLycMAC4psw-147" value="" style="html=1;points=[];perimeter=orthogonalPerimeter;rounded=1;shadow=0;comic=0;labelBackgroundColor=none;strokeWidth=1;fontFamily=Verdana;fontSize=12;align=center;fillColor=#FAE5C7;strokeColor=#0F8B8D;fontColor=#143642;" vertex="1" parent="fqUu2-JQJaLycMAC4psw-146">
          <mxGeometry x="45" y="360" width="10" height="260" as="geometry" />
        </mxCell>
        <mxCell id="fqUu2-JQJaLycMAC4psw-150" value=":Online payment db" style="shape=umlLifeline;perimeter=lifelinePerimeter;whiteSpace=wrap;html=1;container=1;collapsible=0;recursiveResize=0;outlineConnect=0;rounded=1;shadow=0;comic=0;labelBackgroundColor=none;strokeWidth=1;fontFamily=Verdana;fontSize=12;align=center;fillColor=#FAE5C7;strokeColor=#0F8B8D;fontColor=#143642;" vertex="1" parent="1">
          <mxGeometry x="1000" y="80" width="100" height="580" as="geometry" />
        </mxCell>
        <mxCell id="fqUu2-JQJaLycMAC4psw-152" value=":Online payment db" style="shape=umlLifeline;perimeter=lifelinePerimeter;whiteSpace=wrap;html=1;container=1;collapsible=0;recursiveResize=0;outlineConnect=0;rounded=1;shadow=0;comic=0;labelBackgroundColor=none;strokeWidth=1;fontFamily=Verdana;fontSize=12;align=center;fillColor=#FAE5C7;strokeColor=#0F8B8D;fontColor=#143642;" vertex="1" parent="1">
          <mxGeometry x="2320" y="70" width="100" height="580" as="geometry" />
        </mxCell>
        <mxCell id="fqUu2-JQJaLycMAC4psw-155" value="&lt;span style=&quot;font-size: 8px;&quot;&gt;Link to this website&lt;/span&gt;" style="html=1;verticalAlign=bottom;endArrow=block;labelBackgroundColor=none;fontFamily=Verdana;fontSize=12;edgeStyle=elbowEdgeStyle;elbow=vertical;exitX=0.93;exitY=0.378;exitDx=0;exitDy=0;exitPerimeter=0;entryX=0.032;entryY=0.002;entryDx=0;entryDy=0;entryPerimeter=0;strokeColor=#A8201A;fontColor=default;" edge="1" parent="1" target="fqUu2-JQJaLycMAC4psw-137">
          <mxGeometry x="-0.0022" relative="1" as="geometry">
            <mxPoint x="694.4900000000002" y="1120" as="sourcePoint" />
            <mxPoint as="offset" />
            <mxPoint x="850" y="1120" as="targetPoint" />
          </mxGeometry>
        </mxCell>
        <mxCell id="fqUu2-JQJaLycMAC4psw-156" value="&lt;span style=&quot;font-size: 8px;&quot;&gt;Check valid information&lt;/span&gt;" style="html=1;verticalAlign=bottom;endArrow=block;labelBackgroundColor=none;fontFamily=Verdana;fontSize=12;edgeStyle=elbowEdgeStyle;elbow=vertical;exitX=0.93;exitY=0.378;exitDx=0;exitDy=0;exitPerimeter=0;entryX=-0.058;entryY=0.001;entryDx=0;entryDy=0;entryPerimeter=0;strokeColor=#A8201A;fontColor=default;" edge="1" parent="1" target="fqUu2-JQJaLycMAC4psw-147">
          <mxGeometry x="-0.0022" relative="1" as="geometry">
            <mxPoint x="874.4900000000002" y="1190" as="sourcePoint" />
            <mxPoint as="offset" />
            <mxPoint x="1020" y="1190" as="targetPoint" />
          </mxGeometry>
        </mxCell>
        <mxCell id="fqUu2-JQJaLycMAC4psw-157" value="Alt" style="shape=umlFrame;whiteSpace=wrap;html=1;pointerEvents=0;labelBackgroundColor=none;fillColor=#FAE5C7;strokeColor=#0F8B8D;fontColor=#143642;rounded=1;" vertex="1" parent="1">
          <mxGeometry x="50" y="1210" width="1180" height="310" as="geometry" />
        </mxCell>
        <mxCell id="fqUu2-JQJaLycMAC4psw-158" value="" style="endArrow=none;dashed=1;html=1;dashPattern=1 3;strokeWidth=2;rounded=1;entryX=0.999;entryY=0.716;entryDx=0;entryDy=0;entryPerimeter=0;exitX=0.001;exitY=0.708;exitDx=0;exitDy=0;exitPerimeter=0;labelBackgroundColor=none;strokeColor=#A8201A;fontColor=default;" edge="1" parent="1" source="fqUu2-JQJaLycMAC4psw-157" target="fqUu2-JQJaLycMAC4psw-157">
          <mxGeometry width="50" height="50" relative="1" as="geometry">
            <mxPoint x="55" y="1431.2400000000002" as="sourcePoint" />
            <mxPoint x="1235" y="1430" as="targetPoint" />
          </mxGeometry>
        </mxCell>
        <mxCell id="fqUu2-JQJaLycMAC4psw-159" value="&lt;span style=&quot;font-size: 10px;&quot;&gt;valid information&lt;/span&gt;" style="text;html=1;strokeColor=none;fillColor=none;align=center;verticalAlign=middle;whiteSpace=wrap;rounded=1;labelBackgroundColor=none;fontColor=#143642;" vertex="1" parent="1">
          <mxGeometry x="30" y="1245" width="130" height="30" as="geometry" />
        </mxCell>
        <mxCell id="fqUu2-JQJaLycMAC4psw-160" value="&lt;span style=&quot;font-size: 10px;&quot;&gt;invalid information&lt;/span&gt;" style="text;html=1;strokeColor=none;fillColor=none;align=center;verticalAlign=middle;whiteSpace=wrap;rounded=1;labelBackgroundColor=none;fontColor=#143642;" vertex="1" parent="1">
          <mxGeometry x="30" y="1450" width="130" height="30" as="geometry" />
        </mxCell>
        <mxCell id="fqUu2-JQJaLycMAC4psw-161" value="&lt;span style=&quot;font-size: 8px;&quot;&gt;Login succesfully &amp;amp; make payment&lt;/span&gt;" style="html=1;verticalAlign=bottom;endArrow=open;dashed=1;endSize=8;labelBackgroundColor=none;fontFamily=Verdana;fontSize=12;exitX=-0.051;exitY=0.193;exitDx=0;exitDy=0;exitPerimeter=0;entryX=1.022;entryY=0.541;entryDx=0;entryDy=0;entryPerimeter=0;strokeColor=#A8201A;fontColor=default;" edge="1" parent="1" source="fqUu2-JQJaLycMAC4psw-147" target="fqUu2-JQJaLycMAC4psw-114">
          <mxGeometry relative="1" as="geometry">
            <mxPoint x="170" y="1250" as="targetPoint" />
            <mxPoint x="1044.4" y="1241.51" as="sourcePoint" />
          </mxGeometry>
        </mxCell>
        <mxCell id="fqUu2-JQJaLycMAC4psw-162" value="&lt;span style=&quot;font-size: 8px;&quot;&gt;Make payment&lt;br&gt;&lt;/span&gt;" style="html=1;verticalAlign=bottom;endArrow=block;labelBackgroundColor=none;fontFamily=Verdana;fontSize=12;edgeStyle=elbowEdgeStyle;elbow=vertical;exitX=1.005;exitY=0.363;exitDx=0;exitDy=0;exitPerimeter=0;entryX=-0.112;entryY=0.706;entryDx=0;entryDy=0;entryPerimeter=0;strokeColor=#A8201A;fontColor=default;" edge="1" parent="1" target="fqUu2-JQJaLycMAC4psw-137">
          <mxGeometry x="-0.0022" relative="1" as="geometry">
            <mxPoint x="154.99999999999994" y="1273.9999999999998" as="sourcePoint" />
            <mxPoint as="offset" />
            <mxPoint x="850" y="1274" as="targetPoint" />
          </mxGeometry>
        </mxCell>
        <mxCell id="fqUu2-JQJaLycMAC4psw-164" value="Alt" style="shape=umlFrame;whiteSpace=wrap;html=1;pointerEvents=0;labelBackgroundColor=none;fillColor=#FAE5C7;strokeColor=#0F8B8D;fontColor=#143642;rounded=1;" vertex="1" parent="1">
          <mxGeometry x="60" y="1300" width="1100" height="110" as="geometry" />
        </mxCell>
        <mxCell id="fqUu2-JQJaLycMAC4psw-165" value="&lt;span style=&quot;font-size: 10px;&quot;&gt;enough&lt;/span&gt;" style="text;html=1;strokeColor=none;fillColor=none;align=center;verticalAlign=middle;whiteSpace=wrap;rounded=1;labelBackgroundColor=none;fontColor=#143642;" vertex="1" parent="1">
          <mxGeometry x="40" y="1320" width="130" height="30" as="geometry" />
        </mxCell>
        <mxCell id="fqUu2-JQJaLycMAC4psw-166" value="" style="endArrow=none;dashed=1;html=1;dashPattern=1 3;strokeWidth=2;rounded=1;entryX=1;entryY=0.624;entryDx=0;entryDy=0;entryPerimeter=0;exitX=0;exitY=0.628;exitDx=0;exitDy=0;exitPerimeter=0;labelBackgroundColor=none;strokeColor=#A8201A;fontColor=default;" edge="1" parent="1" source="fqUu2-JQJaLycMAC4psw-164" target="fqUu2-JQJaLycMAC4psw-164">
          <mxGeometry width="50" height="50" relative="1" as="geometry">
            <mxPoint x="60.00000000000013" y="1354.48" as="sourcePoint" />
            <mxPoint x="1238.8199999999997" y="1345.52" as="targetPoint" />
          </mxGeometry>
        </mxCell>
        <mxCell id="fqUu2-JQJaLycMAC4psw-167" value="&lt;span style=&quot;font-size: 8px;&quot;&gt;Check balance of account&lt;/span&gt;" style="html=1;verticalAlign=bottom;endArrow=block;labelBackgroundColor=none;fontFamily=Verdana;fontSize=12;edgeStyle=elbowEdgeStyle;elbow=vertical;exitX=0.998;exitY=0.768;exitDx=0;exitDy=0;exitPerimeter=0;entryX=-0.067;entryY=0.381;entryDx=0;entryDy=0;entryPerimeter=0;strokeColor=#A8201A;fontColor=default;" edge="1" parent="1" source="fqUu2-JQJaLycMAC4psw-137" target="fqUu2-JQJaLycMAC4psw-147">
          <mxGeometry x="-0.0022" relative="1" as="geometry">
            <mxPoint x="880.0000000000002" y="1290" as="sourcePoint" />
            <mxPoint as="offset" />
            <mxPoint x="1025.51" y="1290" as="targetPoint" />
          </mxGeometry>
        </mxCell>
        <mxCell id="fqUu2-JQJaLycMAC4psw-168" value="&lt;span style=&quot;font-size: 8px;&quot;&gt;return payment succesfully&lt;/span&gt;" style="html=1;verticalAlign=bottom;endArrow=open;dashed=1;endSize=8;labelBackgroundColor=none;fontFamily=Verdana;fontSize=12;exitX=-0.242;exitY=0.108;exitDx=0;exitDy=0;exitPerimeter=0;entryX=1.141;entryY=0.72;entryDx=0;entryDy=0;entryPerimeter=0;strokeColor=#A8201A;fontColor=default;" edge="1" parent="1" target="fqUu2-JQJaLycMAC4psw-109">
          <mxGeometry relative="1" as="geometry">
            <mxPoint x="890" y="1330" as="targetPoint" />
            <mxPoint x="1043" y="1330" as="sourcePoint" />
          </mxGeometry>
        </mxCell>
        <mxCell id="fqUu2-JQJaLycMAC4psw-169" value="&lt;span style=&quot;font-size: 8px;&quot;&gt;UpdatePrintingPage()&lt;/span&gt;" style="html=1;verticalAlign=bottom;endArrow=open;dashed=1;endSize=8;labelBackgroundColor=none;fontFamily=Verdana;fontSize=12;exitX=-0.009;exitY=0.73;exitDx=0;exitDy=0;exitPerimeter=0;entryX=1.047;entryY=0.727;entryDx=0;entryDy=0;entryPerimeter=0;strokeColor=#A8201A;fontColor=default;" edge="1" parent="1" source="fqUu2-JQJaLycMAC4psw-109" target="fqUu2-JQJaLycMAC4psw-107">
          <mxGeometry relative="1" as="geometry">
            <mxPoint x="527" y="1334.86" as="targetPoint" />
            <mxPoint x="680" y="1334.86" as="sourcePoint" />
          </mxGeometry>
        </mxCell>
        <mxCell id="fqUu2-JQJaLycMAC4psw-170" value="&lt;span style=&quot;font-size: 8px;&quot;&gt;UpdatePrintingPage&lt;/span&gt;" style="html=1;verticalAlign=bottom;endArrow=open;dashed=1;endSize=8;labelBackgroundColor=none;fontFamily=Verdana;fontSize=12;exitX=0.041;exitY=0.739;exitDx=0;exitDy=0;exitPerimeter=0;entryX=0.921;entryY=0.72;entryDx=0;entryDy=0;entryPerimeter=0;strokeColor=#A8201A;fontColor=default;" edge="1" parent="1" source="fqUu2-JQJaLycMAC4psw-107" target="fqUu2-JQJaLycMAC4psw-105">
          <mxGeometry relative="1" as="geometry">
            <mxPoint x="340" y="1334.66" as="targetPoint" />
            <mxPoint x="493" y="1334.66" as="sourcePoint" />
          </mxGeometry>
        </mxCell>
        <mxCell id="fqUu2-JQJaLycMAC4psw-171" value="&lt;span style=&quot;font-size: 8px;&quot;&gt;Display new page balance&lt;/span&gt;" style="html=1;verticalAlign=bottom;endArrow=open;dashed=1;endSize=8;labelBackgroundColor=none;fontFamily=Verdana;fontSize=12;exitX=-0.09;exitY=0.728;exitDx=0;exitDy=0;exitPerimeter=0;entryX=0.908;entryY=0.722;entryDx=0;entryDy=0;entryPerimeter=0;strokeColor=#A8201A;fontColor=default;" edge="1" parent="1" source="fqUu2-JQJaLycMAC4psw-105" target="fqUu2-JQJaLycMAC4psw-114">
          <mxGeometry relative="1" as="geometry">
            <mxPoint x="160" y="1349.6" as="targetPoint" />
            <mxPoint x="313" y="1349.6" as="sourcePoint" />
          </mxGeometry>
        </mxCell>
        <mxCell id="fqUu2-JQJaLycMAC4psw-172" value="&lt;span style=&quot;font-size: 8px;&quot;&gt;return payment failed&lt;/span&gt;" style="html=1;verticalAlign=bottom;endArrow=open;dashed=1;endSize=8;labelBackgroundColor=none;fontFamily=Verdana;fontSize=12;exitX=0.082;exitY=0.769;exitDx=0;exitDy=0;exitPerimeter=0;entryX=1.149;entryY=0.796;entryDx=0;entryDy=0;entryPerimeter=0;strokeColor=#A8201A;fontColor=default;" edge="1" parent="1" source="fqUu2-JQJaLycMAC4psw-147" target="fqUu2-JQJaLycMAC4psw-114">
          <mxGeometry relative="1" as="geometry">
            <mxPoint x="880" y="1384.8" as="targetPoint" />
            <mxPoint x="1033" y="1384.8" as="sourcePoint" />
          </mxGeometry>
        </mxCell>
        <mxCell id="fqUu2-JQJaLycMAC4psw-173" value="&lt;font style=&quot;font-size: 8px;&quot;&gt;Notification of incorrect information, request to re-enter&amp;nbsp;&lt;/font&gt;" style="html=1;verticalAlign=bottom;endArrow=open;dashed=1;endSize=8;labelBackgroundColor=none;fontFamily=Verdana;fontSize=12;exitX=-0.043;exitY=0.952;exitDx=0;exitDy=0;exitPerimeter=0;entryX=1.01;entryY=0.9;entryDx=0;entryDy=0;entryPerimeter=0;strokeColor=#A8201A;fontColor=default;" edge="1" parent="1" target="fqUu2-JQJaLycMAC4psw-114">
          <mxGeometry relative="1" as="geometry">
            <mxPoint x="830" y="1652.48" as="targetPoint" />
            <mxPoint x="1044.57" y="1450.0000000000002" as="sourcePoint" />
          </mxGeometry>
        </mxCell>
        <mxCell id="fqUu2-JQJaLycMAC4psw-174" value="&lt;span style=&quot;font-size: 10px;&quot;&gt;not enough&lt;/span&gt;" style="text;html=1;strokeColor=none;fillColor=none;align=center;verticalAlign=middle;whiteSpace=wrap;rounded=1;labelBackgroundColor=none;fontColor=#143642;" vertex="1" parent="1">
          <mxGeometry x="40" y="1370" width="130" height="30" as="geometry" />
        </mxCell>
      </root>
    </mxGraphModel>
  </diagram>
</mxfile>
